<svg width="567" height="616" xmlns="http://www.w3.org/2000/svg"><g fill="none" fill-rule="evenodd"><g fill-rule="nonzero"><path d="M83.11 1.67l-.646-.22a15.694 15.694 0 0 0-5.835-.935C78.837.56 81.023.95 83.11 1.67m397.417 133.014l-3.303-1.1a3.876 3.876 0 0 0 .234 2.75c5.628 2.077 10.238 9.297 10.94 16.82.463 1.425.7 2.915.701 4.414l-1.046 335.561c.004 1.853-.213 3.7-.646 5.501v3.246a16.179 16.179 0 0 1-1.17 6.23l.454-.385a15.12 15.12 0 0 0 .84-5.116v-4.126c0-.358.22-.578.481-.495a.88.88 0 0 1 .496.811v4.126a18.35 18.35 0 0 1-.262 3.053 17.871 17.871 0 0 0 2.986-10.48l1.06-341.061c0-8.664-5.284-17.535-11.779-19.708" fill="#CDD0D3"/><path d="M488.397 153.195c.065.67.097 1.339.097 2.008v.495c.137 2.585.137 5.5.124 8.898l-.688 222.969c0 1.054-.055 2.072-.166 3.053l-.33 107.957c.433-1.801.65-3.648.647-5.5l1.046-335.562a14.31 14.31 0 0 0-.702-4.414m-11.173-19.625L112.419 11.475c0 .344-.206.578-.481.482l-3.633-1.21a.866.866 0 0 1-.482-.798l-4.128-1.375c0 .344-.22.564-.481.481L83.592 2.468a.866.866 0 0 1-.482-.798A21.215 21.215 0 0 0 76.63.515a7.776 7.776 0 0 0-7.142 3.727 7.543 7.543 0 0 1 8.022-1.72L477.17 136.28l.302.11a3.876 3.876 0 0 1-.234-2.75" fill="#E8E9EA"/><path d="M67.204 189.254l.11-31.15s3.151-21.11 9.123-28.673c9.632-12.158 24.548-11.181 24.548-11.181 4.031-1.018 8.256-1.76 12.631-.591l.95.288a19.99 19.99 0 0 1 11.008 9.627c4.706 8.802 3.357 19.914 7.43 29.155a30.49 30.49 0 0 0 6.88 9.627c5.807 5.501 12.219 8.252 18.714 10.37l3.522 1.155 3.482 1.141a50.44 50.44 0 0 1 17.117 8.802c4.678 3.905 8.765 9.228 12.77 14.522 6.48 8.61 13.113 17.879 16.511 28.743 3.248 10.576 3 21.371 2.752 31.7-.206 7.013-.454 14.247-2.752 19.927a20.127 20.127 0 0 1-13.457 11.992c-5.628 1.65-11.751 1.375-17.778 1.375-5.724 0-11.49.18-16.608 2.393-4.307 1.87-8.022 5.116-11.889 8.004l97.586 32.676c5.93 1.98 10.774 10.08 10.747 17.975l-.138 46.057c0 5.088-2.036 8.898-5.064 10.452-1.857 4.332-5.71 6.463-10.127 4.992L99.925 370.03l-.977-.33a.578.578 0 0 1-.234-.166c-5.641-2.75-10.03-10.561-10.017-18.29l.138-46.057c0-6.175 2.848-10.549 6.88-11.511a7.253 7.253 0 0 1 7.485-3.438c-6.536-10.425-11.008-22.87-16.416-34.382-4.307-9.035-11.792-17.782-18.961-20.188l-.316-.097-.248 79.93c0 .357-.22.578-.495.495a.88.88 0 0 1-.496-.811l.385-125.423c0-.344.22-.564.496-.482m264.467-99.238l-6.88 5.612a11.232 11.232 0 0 1-6.976 2.324 11.012 11.012 0 0 1-12.384 3.287l-48.848-16.338c0 .357-.22.577-.496.495l-19.154-6.409a.88.88 0 0 1-.495-.811l-7.843-2.627c-5.133-1.72-9.976-6.533-13.072-13.01l-6.481-13.587 116.286 38.92 6.343 2.144m145.498 47.53L77.496 3.814c-5.724-1.911-10.402 2.75-10.43 10.356l-1.073 346.563c0 7.619 4.623 15.389 10.347 17.3L476 511.791c5.738 1.912 10.402-2.75 10.43-10.355l.33-105.895c-2.105 6.725-6.88 10.562-12.66 9.31a33.561 33.561 0 0 1-3.55-.99c-8.255-2.75-16.842-8.746-24.836-14.7-11.558-8.61-23.392-17.494-35.35-21.468a41.382 41.382 0 0 0-8.861-1.98c-13.898-1.376-26.144 5.734-38.61 11.359l86.055 28.798c5.999 2.007 10.897 10.19 10.87 18.18l-.151 46.594c0 7.99-4.954 12.886-11.008 10.878l-3.234-1.086c-.73 6.876-5.353 10.85-10.87 9.007L335.483 456.3c0 .344-.22.564-.496.481l-37.455-12.542a.866.866 0 0 1-.481-.798l-9.632-3.204c-4.128-1.375-7.65-5.597-9.508-10.672.111.885.416 1.735.894 2.49a.976.976 0 0 1 .317.893c0 .275-.248.399-.468.33h-.124a1.967 1.967 0 0 1-.564-.687 8.482 8.482 0 0 1-.84-2.215 52.81 52.81 0 0 1-1.06-12.776c0-.343.221-.563.482-.48l.124-41.63c0-5.28 2.174-9.214 5.38-10.685a87.899 87.899 0 0 1-10.98-14.042c-10.65-16.709-17.104-39.882-15.535-59.452a69.91 69.91 0 0 1-17.365-45.837 49.21 49.21 0 0 1 3.577-19.06.949.949 0 0 1-.22-.908 24.32 24.32 0 0 1 12.577-13.932 26.581 26.581 0 0 1 8.462-2.544h.248c.242.115.412.341.454.605a25.483 25.483 0 0 1 8.256.963 23.487 23.487 0 0 1 15.7.124 37.871 37.871 0 0 1 13.182 7.976 103.785 103.785 0 0 0 10.596-19.735c4.83-12.047 7.746-26.322 14.172-36.348 4.679-7.288 11.105-11.992 18.301-13.326 10.43-1.966 22.016 2.957 32.322.207 8.435-2.256 15.136-12.653 18.755-24.837 2.257-7.523 7.83-11.002 13.912-8.953l65.25 21.839a27.787 27.787 0 0 1 9.948 5.17 13.566 13.566 0 0 0-6.44-5.157" fill="#FFF"/><path d="M477.17 136.28L77.51 2.522a7.543 7.543 0 0 0-8.022 1.719 13.363 13.363 0 0 0-3.385 9.626L65.03 360.431c0 8.348 5.05 16.833 11.31 18.924L445.177 502.81a.88.88 0 0 1 0-.124c0-.357.22-.577.496-.495l6.604 2.214a.88.88 0 0 1 .496.812.77.77 0 0 1 0 .11l10.471 3.506a.894.894 0 0 1 0-.123c0-.358.22-.578.482-.495l13.526 4.524a7.062 7.062 0 0 0 5.105-.096 9.312 9.312 0 0 0 3.908-4.635 16.179 16.179 0 0 0 1.17-6.23v-3.245l.33-107.957a25.224 25.224 0 0 1-1.005 4.964l-.33 105.895c0 7.619-4.692 12.267-10.43 10.355L76.34 378.103c-5.724-1.911-10.36-9.626-10.347-17.3L67.066 14.24c0-7.62 4.706-12.267 10.43-10.356l399.66 133.757a13.566 13.566 0 0 1 6.44 5.157c3.494 3.15 4.568 7.179 4.884 12.969v-.495c0-.67-.032-1.339-.096-2.008-.688-7.523-5.298-14.743-10.94-16.82l-.302-.11" fill="#EFEFEF"/><path d="M488.04 497.942c-.262-.082-.482.124-.482.496v4.125a15.12 15.12 0 0 1-.84 5.116 9.626 9.626 0 0 1-2.187 3.548 6.814 6.814 0 0 1-7.28 1.568l-13.539-4.483c-.261-.083-.482.124-.482.495a.839.839 0 0 0 .468.811l13.526 4.525c5.408 1.815 9.935-1.76 11.008-8.169.172-1.009.26-2.03.262-3.053v-4.126a.88.88 0 0 0-.496-.811M452.264 504.447l-6.605-2.214c-.275-.096-.495.124-.495.495a.88.88 0 0 0 0 .124.853.853 0 0 0 .481.688l6.605 2.214c.248.082.44-.083.482-.358a.77.77 0 0 0 0-.11.88.88 0 0 0-.496-.811" fill="#737373"/><path d="M436.316 141.904a3.93 3.93 0 0 1 0-.426c0-1.554.95-2.503 2.119-2.104 13.32 4.456 24.107 22.526 24.052 40.267 0 14.921-7.774 24.947-18.15 25.085a16.107 16.107 0 0 1-15.135 2.035 29.378 29.378 0 0 1-12.384-8.65 3.973 3.973 0 0 1-.77-3.989 47.23 47.23 0 0 1-4.844-8.279.715.715 0 0 1-.372-.398 51.73 51.73 0 0 1-2.752-8.926 58.12 58.12 0 0 1-1.17-7.083.742.742 0 0 1 0-.357c0-.67-.027-1.338-.082-2.008-.192-7.866 2.133-15.128 6.344-19.253a15.014 15.014 0 0 1 7.361-4.236 14.704 14.704 0 0 1 5.504-.193 14.317 14.317 0 0 1 10.238-1.375m37.344-4.346l-65.208-21.935c-6.069-2.035-11.641 1.375-13.912 8.953-3.674 12.185-10.32 22.582-18.755 24.837-10.237 2.75-21.892-2.173-32.322-.206-7.196 1.375-13.622 6.037-18.3 13.326-6.427 10.025-9.344 24.314-14.174 36.348a103.785 103.785 0 0 1-10.595 19.735c12.082 10.892 20.516 29.691 20.448 48.312-.07 22.788-12.838 37.352-29.337 34.808a23.404 23.404 0 0 1-18.85 1.141 41.377 41.377 0 0 1-17.008-11.676c-1.569 19.57 4.885 42.743 15.535 59.452a87.9 87.9 0 0 0 11.077 14.07 7.434 7.434 0 0 1 5.586-.193l3.234 1.086c.729-6.876 5.339-10.837 10.856-8.994l60.998 20.409c12.384-5.611 24.768-12.79 38.611-11.36 3.018.333 5.99.997 8.861 1.98 11.903 3.989 23.792 12.859 35.35 21.468 7.994 5.955 16.594 11.937 24.837 14.701 1.164.395 2.35.726 3.55.99 5.765 1.238 10.54-2.599 12.659-9.31.5-1.617.837-3.28 1.004-4.964.101-.981.156-2 .166-3.054l.688-222.969c0-3.37 0-6.312-.124-8.898-.317-5.79-1.376-9.819-4.885-12.968a27.787 27.787 0 0 0-9.949-5.171M114.566 117.961l-.95-.289c-4.39-1.169-8.6-.426-12.631.592 0 0-14.875-.977-24.548 11.18-5.972 7.496-9.123 28.73-9.123 28.73l-.11 31.08a.894.894 0 0 1 .44.784l-.137 45.507.316.096c7.169 2.407 14.668 11.153 18.961 20.189 5.504 11.47 9.88 23.915 16.416 34.381.467.073.927.183 1.376.33l47.72 15.967c3.866-2.902 7.581-6.148 11.888-8.004 5.119-2.214 10.884-2.407 16.609-2.393 6.027 0 12.15.247 17.778-1.375a20.127 20.127 0 0 0 13.333-11.965c2.27-5.68 2.518-12.914 2.752-19.927.303-10.329.55-21.124-2.752-31.7-3.357-10.92-9.99-20.134-16.512-28.743-4.004-5.294-8.105-10.617-12.77-14.522a50.44 50.44 0 0 0-17.117-8.802l-3.481-1.141-3.523-1.156c-6.508-2.172-12.906-4.8-18.713-10.369-2.9-2.73-5.238-6-6.88-9.627-4.128-9.255-2.752-20.367-7.43-29.155a19.99 19.99 0 0 0-11.009-9.627" fill="#F7F8F9"/><path d="M436.316 141.904a14.317 14.317 0 0 0-10.238 1.375c.44.065.9.147 1.376.248a1.513 1.513 0 0 1 1.982-1.169c13.32 4.456 24.107 22.513 24.052 40.254a34.063 34.063 0 0 1-2.752 13.752c4.555-3.314 7.472-9.86 7.472-18.112 0-14.646-8.861-29.554-19.856-33.24a3.672 3.672 0 0 1-2.077-3.08" fill="#E6EAED"/><path d="M438.407 139.374c-1.17-.385-2.105.55-2.119 2.104a3.672 3.672 0 0 0 2.078 3.507c11.008 3.685 19.897 18.593 19.856 33.24 0 8.347-2.959 14.825-7.5 18.18a20.465 20.465 0 0 1-6.44 8.252c10.39-.138 18.109-10.163 18.15-25.085 0-17.74-10.746-35.756-24.052-40.267M331.616 90.043l-6.385-2.131-6.948 9.352c-.184.247-.372.485-.565.715 2.535.039 5.008-.78 7.018-2.324l6.88-5.612" fill="#E6EAED"/><path d="M325.273 87.912L208.987 48.979l6.48 13.56c3.11 6.477 7.94 11.29 13.073 13.01l7.843 2.626c0-.344.22-.564.495-.481l19.154 6.408a.866.866 0 0 1 .496.812l48.834 16.324a11.012 11.012 0 0 0 12.384-3.287c.193-.229.38-.467.564-.715l6.949-9.352" fill="#F7F8F9"/><path d="M287.171 210.75a23.487 23.487 0 0 0-15.7-.125l1.376.44c19.058 6.382 34.4 32.126 34.4 57.5 0 16.131-6.33 28.234-15.81 33.28 16.512 2.545 29.267-12.033 29.336-34.807 0-18.607-8.38-37.42-20.447-48.312a37.871 37.871 0 0 0-13.182-7.977" fill="#E6EAED"/><path d="M265.87 248.115c0 2.558-.027 5.116-.082 7.674 0 .44-.289 5.102-.289 7.426a57.735 57.735 0 0 1 6.316-1.54l7.348-2.118-8.531-7.523c-1.473-1.293-3.151-2.544-4.761-3.933m-2.904-2.833c-.432-.5-.837-1.023-1.21-1.568a2.75 2.75 0 0 1-.22-2.434c0-.138.11-.275.15-.426a.99.99 0 0 1 1.225-.564l.344.137a2.613 2.613 0 0 1 1.376 2.352c2.49 2.957 6.165 5.267 8.807 7.605l9.632 8.527c1.018.907 1.61 3.314.344 3.672l-8.875 2.558c-2.436.715-6.757.783-8.78 2.516-.301.264-.72.347-1.1.22a1.376 1.376 0 0 1-.66-.509c-1.514-2.021-1.253-3.768-1.253-6.216 0-5.29.041-10.57.124-15.843m9.935-34.202l-1.376-.44a25.483 25.483 0 0 0-8.256-.963c.082.358 0 .674-.317.702h-.523c-.426.068-1.032.178-1.788.343a28.41 28.41 0 0 0-5.793 2.05 23.645 23.645 0 0 0-12.192 13.477.344.344 0 0 1-.44.248.564.564 0 0 1-.193-.124 49.21 49.21 0 0 0-3.577 19.06 69.91 69.91 0 0 0 17.365 45.838 41.377 41.377 0 0 0 17.007 11.676 23.404 23.404 0 0 0 18.851-1.142c9.467-5.047 15.756-17.15 15.81-33.28.083-25.374-15.314-51.119-34.4-57.5" fill="#FF5A57"/><path d="M265.568 263.215c0-2.324.289-6.986.289-7.426 0-2.558.027-5.116.083-7.674 1.61 1.375 3.288 2.64 4.76 3.933l8.532 7.522-7.348 2.118a57.736 57.736 0 0 0-6.316 1.54m-2.587-22.925a.99.99 0 0 0-1.225.564c0 .151-.096.289-.15.426a2.75 2.75 0 0 0 .22 2.435c.373.545.777 1.068 1.21 1.567-.073 5.263-.115 10.544-.124 15.843 0 2.448-.261 4.126 1.252 6.216.163.234.393.412.661.51.38.126.799.043 1.1-.22 2.023-1.747 6.33-1.802 8.78-2.517l8.875-2.558c1.28-.372.688-2.751-.344-3.672l-9.632-8.527c-2.628-2.324-6.316-4.648-8.807-7.605a2.613 2.613 0 0 0-1.376-2.352l-.344-.137" fill="#FFF"/><path d="M448.948 405.938l-86.056-28.797-60.998-20.423c-5.504-1.843-10.127 2.132-10.856 8.994l143.806 48.134c5.999 2.008 10.897 10.19 10.87 18.18v1.885a.88.88 0 0 1 .482.811l-.083 24.658c0 .344-.22.564-.482.482v18.744c0 .63-.031 1.259-.096 1.885l3.234 1.086c5.999 2.008 10.925-2.888 11.008-10.878l.151-46.594c0-7.99-4.857-16.173-10.87-18.18" fill="#EAEDEF"/><path d="M249.854 339.156l-97.627-32.676-47.651-15.911a8.824 8.824 0 0 0-1.376-.33 7.253 7.253 0 0 0-7.485 3.451 8.026 8.026 0 0 1 4.458.262l145.333 48.642c5.394 1.802 9.907 8.403 11.008 15.527a.976.976 0 0 1 .248.646l-.083 25.264v23.393a16.014 16.014 0 0 1-1.183 6.257c3.027-1.554 5.05-5.364 5.063-10.452l.138-46.057c0-7.908-4.816-15.994-10.747-17.975" fill="#EDEEEF"/><path d="M434.816 413.846L291.01 365.712l-3.233-1.086a7.434 7.434 0 0 0-5.587.192c-3.192 1.472-5.353 5.405-5.38 10.686l-.124 41.629a.866.866 0 0 1 .495.811c-.125 3.911.161 7.825.854 11.676 1.857 5.075 5.435 9.31 9.508 10.672l9.632 3.204c0-.357.22-.577.481-.495l37.455 12.543a.88.88 0 0 1 .495.811l99.072 33.143c5.504 1.843 10.128-2.145 10.87-9.007a18.28 18.28 0 0 0 .097-1.885v-18.744a.866.866 0 0 1-.495-.812l.082-24.658c0-.357.22-.577.496-.495v-1.884c0-7.99-4.871-16.173-10.87-18.18" fill="#71E698"/><path d="M245.492 343.9L100.16 295.259c-5.683-1.898-10.32 2.75-10.347 10.273l-.138 46.002c0 7.564 4.582 15.266 10.251 17.164l78.212 26.13 67.135 22.47c5.683 1.899 10.32-2.75 10.348-10.272l.137-46.057c0-7.564-4.582-15.266-10.251-17.163" fill="#FFF"/><path d="M245.506 342.594l-145.347-48.642a8.026 8.026 0 0 0-4.458-.262c-4.018.963-6.88 5.336-6.88 11.511l-.138 46.057c0 7.73 4.376 15.596 10.017 18.291a.99.99 0 0 1-.247-.632c0-.358.22-.578.481-.496l.977.33c-5.683-1.897-10.278-9.626-10.25-17.163l.137-46.057c0-7.564 4.664-12.17 10.347-10.273l145.347 48.643c5.683 1.898 10.279 9.627 10.251 17.163l-.137 46.057c0 7.564-4.665 12.171-10.348 10.273l-67.135-22.471a.88.88 0 0 1 .496.811c0 .344-.22.564-.496.481l-78.212-26.13 145.347 48.643c4.431 1.485 8.256-.646 10.128-4.992a16.014 16.014 0 0 0 1.183-6.257v-14.496c0 .358-.22.578-.482.496a.88.88 0 0 1-.495-.812v-3.59c0-.357.22-.577.495-.494a.88.88 0 0 1 .482.811V384.1c0 .358-.22.578-.482.495a.88.88 0 0 1-.495-.811l.083-25.263c0-.344.22-.564.495-.482.09.03.17.082.234.152-1.073-7.124-5.587-13.753-11.008-15.527" fill="#F4F4F4"/><path d="M434.293 171.073l-.165.399-.179.385a4.496 4.496 0 0 1-.206.371l-2.573 3.865 3.054 1.018v-4.566-1.032-.481m-4.637 6.766a.976.976 0 0 1-.633-1.059v-.206c-.015-.341.066-.68.234-.976l4.293-6.877a.592.592 0 0 1 .785-.302l1.224.412a.99.99 0 0 1 .647 1.087v7.839l.784.26a.99.99 0 0 1 .66 1.074v.577c0 .564-.178.784-.536.66l-.908-.302v2.93c0 .577-.22.797-.647.66l-.688-.235a1.004 1.004 0 0 1-.633-1.086v-2.902l-4.527-1.513m-7.609-9.709a.757.757 0 0 1-.358-.33l-.413-.578a1.017 1.017 0 0 1-.165-1.223l.468-.55c.198-.206.43-.373.688-.496.3-.138.62-.222.95-.247.41-.03.823.025 1.21.165.498.175.963.43 1.376.756.44.354.826.77 1.143 1.238.339.5.603 1.046.784 1.623.196.632.294 1.29.289 1.953a4.412 4.412 0 0 1-.372 1.925c-.224.48-.537.914-.922 1.279a5.752 5.752 0 0 1-1.21.853c-.427.233-.84.453-1.211.687a4.98 4.98 0 0 0-.964.77c-.272.307-.42.704-.412 1.114l4.568 1.527a.99.99 0 0 1 .66 1.073v.577c0 .587-.22.807-.66.66l-6.068-2.035a.95.95 0 0 1-.51-.385 1.21 1.21 0 0 1-.192-.715v-.427a5.402 5.402 0 0 1 .385-2.186c.239-.511.565-.977.963-1.376a5.669 5.669 0 0 1 1.253-.948 20.04 20.04 0 0 0 1.252-.757c.362-.234.687-.521.963-.853.267-.34.404-.764.385-1.196a2.873 2.873 0 0 0-.481-1.678 2.422 2.422 0 0 0-1.197-.935 1.377 1.377 0 0 0-1.019.028c-.128.069-.248.152-.357.247-.094.086-.181.178-.262.275a.633.633 0 0 1-.454.22h-.11m5.683-21.688a13.972 13.972 0 0 0-13.265 3.48c-3.949 3.768-6.37 10.122-6.577 17.493v3.15a54.986 54.986 0 0 0 3.66 14.302c.066.192.066.4 0 .591a41.14 41.14 0 0 0 2.202 4.126 35.385 35.385 0 0 0 2.628 3.768 1.377 1.377 0 0 1 1.376-.234c.418.154.788.415 1.073.757a24.259 24.259 0 0 0 10.196 7.151c11.008 3.686 19.98-5.24 20.021-19.886.041-14.646-8.71-29.5-19.718-33.198a3.054 3.054 0 0 1-1.624-1.582" fill="#FFF"/><path d="M411.7 185.54a.44.44 0 0 1-.18.276.33.33 0 0 1-.289 0 47.23 47.23 0 0 0 4.844 8.279v-.096a1.76 1.76 0 0 1 .426-.537 35.385 35.385 0 0 1-2.628-3.768 41.14 41.14 0 0 1-2.201-4.126m-4.321-12.377c.174 1.11.394 2.214.66 3.314a70.627 70.627 0 0 1-.66-3.314m20.007-29.623c-.44-.1-.899-.183-1.376-.247a14.704 14.704 0 0 0-5.504.192 15.014 15.014 0 0 0-7.362 4.236c-4.21 4.236-6.536 11.442-6.343 19.253 0 .67.028 1.339.083 2.008a.344.344 0 0 1 .371-.247c.276.136.46.408.482.715 0 .34.036.674.11 1.004 0-1.06-.083-2.118 0-3.15.193-7.37 2.628-13.752 6.577-17.493a13.972 13.972 0 0 1 13.265-3.479 4.303 4.303 0 0 1-.468-1.925c0-.317.046-.632.138-.936" fill="#E2E2E2"/><path d="M429.312 142.413a1.514 1.514 0 0 0-1.981 1.169 3.203 3.203 0 0 0-.138.935c.004.67.164 1.329.468 1.925.33.711.921 1.267 1.651 1.555 11.008 3.685 19.897 18.593 19.856 33.24-.042 14.646-9.027 23.571-20.021 19.885a24.259 24.259 0 0 1-10.196-7.15 2.532 2.532 0 0 0-1.074-.757 1.377 1.377 0 0 0-1.376.234 1.76 1.76 0 0 0-.426.536v.096a3.973 3.973 0 0 0 .77 3.988 29.378 29.378 0 0 0 12.384 8.65 16.107 16.107 0 0 0 15.136-2.035 20.465 20.465 0 0 0 6.44-8.251 34.063 34.063 0 0 0 2.752-13.753c0-17.74-10.746-35.756-24.052-40.253" fill="#71E698"/><path d="M67.163 189.254c-.276-.096-.496.124-.496.481l-.385 125.423a.88.88 0 0 0 .495.811c.275.097.496-.123.496-.495l.247-79.93.138-45.506a.894.894 0 0 0-.44-.784M178.137 394.909l-78.212-26.13-.977-.33c-.261-.083-.481.124-.481.495a.99.99 0 0 0 .247.633c.063.073.144.13.234.165l.977.33 78.212 26.13c.275.096.495-.124.495-.482a.88.88 0 0 0-.495-.811M335.084 455.557l-37.455-12.542c-.262-.082-.482.124-.482.495a.866.866 0 0 0 .482.798l37.455 12.542c.275.096.495-.124.495-.481a.88.88 0 0 0-.495-.812M445.728 433.925c-.276-.097-.496.123-.496.495l-.082 24.658a.866.866 0 0 0 .495.811c.262.083.482-.123.482-.481l.082-24.658a.88.88 0 0 0-.481-.812M256.252 357.983c-.275-.096-.495.124-.495.482l-.082 25.263a.88.88 0 0 0 .495.811c.261.083.482-.123.482-.495l.082-25.263a.976.976 0 0 0-.248-.646.564.564 0 0 0-.234-.152M256.156 388.541c-.275-.096-.495.124-.495.495v3.59a.88.88 0 0 0 .495.811c.262.083.482-.123.482-.495v-3.59a.88.88 0 0 0-.482-.81M256.032 84.116l-19.154-6.408c-.275-.097-.495.123-.495.48a.88.88 0 0 0 .495.812l19.154 6.409c.276.096.496-.124.496-.495a.866.866 0 0 0-.496-.812M407.296 168.845a.344.344 0 0 0-.372.248.742.742 0 0 0 0 .357c.138 1.376.303 2.572.51 3.769.206 1.196.412 2.282.66 3.314a51.73 51.73 0 0 0 2.752 8.925c.066.177.2.32.372.4a.33.33 0 0 0 .289 0 .44.44 0 0 0 .178-.276.907.907 0 0 0 0-.591 54.986 54.986 0 0 1-3.66-14.303c0-.33-.036-.665-.11-1.004a.866.866 0 0 0-.481-.715M262.816 209.044h-.151a26.581 26.581 0 0 0-8.463 2.544 24.32 24.32 0 0 0-12.576 13.931.949.949 0 0 0 .22.908c.055.054.12.096.192.124a.344.344 0 0 0 .44-.248 23.645 23.645 0 0 1 12.192-13.477 28.41 28.41 0 0 1 5.793-2.05 36.558 36.558 0 0 1 1.789-.343h.647c.247 0 .399-.344.316-.702a.811.811 0 0 0-.454-.605M111.938 10.664l-3.633-1.21c-.261-.083-.482.124-.482.495a.866.866 0 0 0 .482.798l3.633 1.21c.275.096.481-.124.481-.482a.866.866 0 0 0-.481-.81M103.2 7.721L83.592 1.175c-.261-.083-.482.124-.482.495a.866.866 0 0 0 .482.798L103.2 9.096c.261.083.482-.123.482-.481a.88.88 0 0 0-.482-.894M276.714 417.147c-.262-.083-.482.123-.482.48a52.81 52.81 0 0 0 1.06 12.777c.174.774.457 1.519.839 2.214.133.27.326.505.564.688h.124c.206.069.413 0 .468-.33a.976.976 0 0 0-.317-.894 6.063 6.063 0 0 1-.894-2.49 55.874 55.874 0 0 1-.853-11.675.866.866 0 0 0-.496-.812" fill="#737373"/></g><path d="M292.675 385.667l63.943 21.784c.774.26 1.295.986 1.293 1.802v4.125a1.018 1.018 0 0 1-1.376.963l-64.823-22.073a1.884 1.884 0 0 1-1.293-1.788v-3.19a1.664 1.664 0 0 1 2.256-1.623zM292.675 400.08l134.6 45.74c.774.26 1.295.986 1.294 1.802v4.126a1.018 1.018 0 0 1-1.376.963l-135.481-46.03a1.884 1.884 0 0 1-1.293-1.788v-3.232a1.664 1.664 0 0 1 2.256-1.581zM292.675 414.492l95.866 32.704c.774.26 1.295.985 1.294 1.801v4.126a1.018 1.018 0 0 1-1.376.963l-96.747-33.006a1.884 1.884 0 0 1-1.293-1.788v-3.232a1.664 1.664 0 0 1 2.256-1.568z" fill="#FFF" fill-rule="nonzero"/><path d="M99.155 340.078v3.204c0 .812.521 1.533 1.293 1.788l135.481 46.03a1.019 1.019 0 0 0 1.376-.963v-4.126a1.898 1.898 0 0 0-1.293-1.802L101.37 338.496a1.666 1.666 0 0 0-2.215 1.582zm-.29-14.84v3.232c.001.813.522 1.533 1.294 1.788l96.747 33.006a1.019 1.019 0 0 0 1.376-.962v-4.126a1.898 1.898 0 0 0-1.294-1.802l-95.907-32.717a1.666 1.666 0 0 0-2.215 1.582z" fill="#E7E7E7" fill-rule="nonzero"/><path d="M556.95 602.131c4.031-1.554 3.454-6.01 0-10.039-7.17-8.485-16.512-18.91-37.785-29.884-19.085-9.874-24.245 0-18.397-13.175.371-.839.922-.825-.138-1.527l-26.144-4.895s-16.278 13.477-15.439 23.324c2.037 23.38 57.462 7.33 92.605 35.069a5.685 5.685 0 0 0 5.312 1.127h-.014z" fill="#C4D0D3" fill-rule="nonzero"/><path d="M495.222 427.447a118.52 118.52 0 0 0 11.297-6.243s1.9 10.053 3.867 13.147c3.22 5.06 9.384 1.692-.578 17.878-6.674 10.796-28.676 1.142-23.144-1.994 4.417-2.517 1.376-13.134-3.495-11.456-10.788 3.727-21.92-6.312-23.241-15.127-.963-6.437-.083-5.185.234-13.56a68.12 68.12 0 0 0-.95-14.99s9.206-1.376 7.72 6.972c-.895 4.992-.578 9.31 0 10.59.578 1.278 5.82 2.062 6.164.178.344-1.884 1.252-2.668 7.362-1.375a4.704 4.704 0 0 1 2.752 3.3c.261 2.256 1.06 7.07 2.752 8.252a41.878 41.878 0 0 1 4.004 3.576 4.694 4.694 0 0 0 5.256.852z" fill="#FDCBAD" fill-rule="nonzero"/><path d="M501.112 380.414c23.79 11.18 6.756 46.758 6.756 46.758-2.394 2.022-4.238 2.338-10.32 3.26-4.252.646-11.2-3.906-11.435-4.126a9.46 9.46 0 0 1-4.128-9.627 3.89 3.89 0 0 0-.316-2.365 4.362 4.362 0 0 0-3.77-2.325h-.578a4.129 4.129 0 0 0-3.069 1.376 3.427 3.427 0 0 1-1.637.976c-4.555 1.224-5.504-1.664-5.504-1.664a23.93 23.93 0 0 1-1.307-11.002c.206-4.126-3.84-6.491-4.748-5.694-.344.303-.33 1.527-1.293 1.843-3.922 1.28-5.504-5.198-5.504-5.198-1.954-7.523-1.775-13.849 5.93-20.148 0 0 5.504-3.19 8.6-2.475 3.096.715 4.734 3.534 6.027 4.538a12.044 12.044 0 0 0 10.169 3.672c6.357-.674 11.077-.192 16.127 2.2z" fill="#808B9A" fill-rule="nonzero"/><path d="M440.32 553.2s11.779 7.729 23.805 14.385c20.915 11.58 46.701 11.167 66.612-2.035l2.064-1.375c21.644-15.5 15.452-45.384 15.452-45.384l-9.783 10.122c-.385.399-.757.825-1.114 1.252-26.695 32.153-56.306 7.027-56.306 7.027s-54.71-28.88-64.672-26.13c-7.142 1.967-9.288 7.262-9.288 13.079a36.85 36.85 0 0 0 .412 4.305 111.209 111.209 0 0 0 32.612 64.265l10.113 8.018a13.915 13.915 0 0 0 5.78 2.75 4.653 4.653 0 0 0 4.24-1.263 4.647 4.647 0 0 0 1.263-4.238c-2.435-12.487-8.104-38.768-14.874-51.695" fill="#CFDADD" fill-rule="nonzero"/><path d="M535.195 441.819a19.427 19.427 0 0 1 4.128 9.984c1.638 12.61 7.706 59.452 7.912 62.326.18 2.407 1.28 4.621-.206 6.519 0 0-16.774 25.277-35.707 27.202a40.112 40.112 0 0 1-28.979-8.169 3.685 3.685 0 0 1-1.376-2.75c-.11-5.845-.578-25.429-1.665-28.344-1.293-3.438-7.279-18.195-7.733-21.344-.578-4.057-4.334-6.972-5.752-10.37a14.518 14.518 0 0 1 5.23-17.589l12.273-7.261c1.858-1.1 3.825-2.352 5.504-2.283a79.85 79.85 0 0 0 17.42-2.228c7.128-2.022 9.949-7.688 7.527-9.93.041-.054 13.127-5.72 21.424 4.237z" fill="#D0EFE8" fill-rule="nonzero"/><path d="M459.928 565.22l-28.18-16.2" stroke="#464646" stroke-width=".5" stroke-linecap="round"/><path d="M451.933 488.577l14.283-24.026c2.05-3.506 6.357-4.125 9.811-1.485 3.963 3.067 5.133 9.132 2.463 12.859l-13.76 20.436" fill="#C2E2DB" fill-rule="nonzero"/><path d="M459.02 410.917l-3.812 5.872a1.526 1.526 0 0 0 0 1.705l3.193 4.635-.193-1.004a18.116 18.116 0 0 1 0-6.876l.812-4.332z" fill="#FBBF99" fill-rule="nonzero"/><path d="M474.72 371.516c1.734 0 4.334 2.53 10.403 3.74.454.097.302.853-.124 1.004-1.376.496-4.679.99-6.743-.632a46.581 46.581 0 0 1-3.756-3.52.33.33 0 0 1 .22-.592z" fill="#808B9A" fill-rule="nonzero"/><path d="M51.09 437.734c0-.069-.536 8.967-.59 9.97v.922l1.375 34.656a100.34 100.34 0 0 1-1.252 20.904c-4.128 24.658-14.723 83.89-20.502 82.639-9.756-2.118-9.096-63.18-8.449-87.287.17-6.719-.174-13.44-1.032-20.106l-10.375-79.504" fill="#B2C9E6" fill-rule="nonzero"/><path d="M88.064 412.856l.73 2.75c.729 2.75 15.52 59.604 16.181 69.093 0 0 2.34 6.01-.826 14.866-3.164 8.857-17.888 63.496-24.258 75.556 0 0-4.404 10.054-6.385 12.034-1.982 1.98-3.66 3.713-5.614.77-1.954-2.943-6.15-25.58 1.775-76.106 0 0 5.504-17.507-1.61-31.755-7.114-14.247-17.365-35.33-17.365-35.33s-24.864-9.09-35.184-24.576c-9.894-14.99-5.546-35.247-5.546-35.247s40.565 31.273 50.912 32.772c12.288 1.788 27.19-4.827 27.19-4.827z" fill="#BED7F5" fill-rule="nonzero"/><path d="M66.048 274.148c-6.164-.921-12.577-6.161-12.577-6.161s3.289 13.065 3.289 17.273c0 3.204-6.178 5.501-8.449 7.055-2.642 1.83-.839 3.315 9.495 13.753s30.85 4.125 25.717 1.375c-6.398-3.52-13.691-24.232-.578-24.603 13.114-.372 22.195-13.904 20.847-24.108-.977-7.413-1.555-5.749-4.555-14.88a78.133 78.133 0 0 1-3.715-16.834s-10.595 1.376-6.302 10.15c2.56 5.226 3.591 10.094 3.302 11.69-.289 1.595-5.765 4.125-6.756 2.145-.99-1.98-2.229-2.545-8.545.852a5.403 5.403 0 0 0-2.009 4.525c.427 2.572 1.073 8.128-.413 9.93a48.034 48.034 0 0 0-3.247 5.129 5.395 5.395 0 0 1-5.504 2.71z" fill="#FAB7A7" fill-rule="nonzero"/><path d="M80.716 251.415a5.351 5.351 0 0 0-3.756 3.851c-.163.936-.023 1.9.399 2.75a10.846 10.846 0 0 1-1.528 11.965c-.206.248-6.44 7.468-11.338 8.114-7.004.922-7.32.151-8.999-2.352 0 0-34.716-19.913-8.586-42.825 9.219-8.073 7.334-17.342 28.497-15.829 1.692.124 2.27-.082 3.88.069a7.502 7.502 0 0 0 4.445-1.375c22.016-12.763 17.489 8.444 13.622 13.284-.468.578-1.459 1.747-2.092.908-.632-.839-.839-1.375-1.376-1.664-1.252-.605-4.994 3.26-3.44 7.784a27.492 27.492 0 0 1 2.064 12.611s-.178 3.507-5.586 3.59a3.937 3.937 0 0 1-2.12-.564 4.68 4.68 0 0 0-3.81-.482l-.276.165z" fill="#BD8F8F" fill-rule="nonzero"/><path d="M24.424 309.396c1.376 9.145 2.312 39.882 1.17 43.568-.881 2.846-10.073 18.566-15.04 25.868a6.35 6.35 0 0 0 .234 7.481s27.644 27.505 50.045 31.37c8.71 1.513 22.167-1.664 27.272-4.827 4.459-2.75-.399-15.128-1.761-34.973-.674-9.874 11.132-29.98 11.132-29.98a57.573 57.573 0 0 0 6.618-11.896 16.663 16.663 0 0 0-6.013-20.23l-14.255-8.43a6.126 6.126 0 0 0-3.77-.84 34.415 34.415 0 0 1-20.145-4.483c-5.655-3.149-11.146-7.055-11.572-9.736-2.194.529-4.502.301-6.55-.647-8.187-3.96-19.401 4.264-17.365 17.755z" fill="#F99" fill-rule="nonzero"/><path d="M60.984 228.944a60.066 60.066 0 0 0-13.856-16.077 13.06 13.06 0 0 0-5.944-3.15 10.683 10.683 0 0 0-5.367.757c-9.632 3.617-14.847 13.973-17.64 23.86-1.376 4.8-2.642 10.136-6.729 13.01a13.284 13.284 0 0 1-8.38 2.05 2.945 2.945 0 0 0-1.692 5.418c.803.538 1.655.999 2.546 1.375 4.306 1.733 9.178 1.458 13.76.495a50.216 50.216 0 0 0 36.106-31.396" fill="#BD8F8F" fill-rule="nonzero"/><path d="M100.82 244.443l6.081 5.322a1.76 1.76 0 0 1 .51 1.884l-2.064 6.134-.097-1.17a20.771 20.771 0 0 0-2.133-7.536l-2.297-4.634z" fill="#FAB7A7" fill-rule="nonzero"/><path d="M97.187 318.225l44.114 3.48a19.449 19.449 0 0 0 15.233-5.598l45.174-44.902a5.314 5.314 0 0 1 6.88-.55 5.308 5.308 0 0 1 .743 7.963l-50.912 53.304a19.448 19.448 0 0 1-13.939 6.024l-48.036.33a10.047 10.047 0 0 1-7.617-3.405 10.036 10.036 0 0 1-2.414-7.982c.714-5.292 5.449-9.1 10.774-8.664z" fill="#FC8181" fill-rule="nonzero"/><path d="M141.288 321.704a19.449 19.449 0 0 0 15.232-5.597l45.174-44.902a5.314 5.314 0 0 1 6.88-.55 5.308 5.308 0 0 1 .743 7.963l-50.912 53.304a19.448 19.448 0 0 1-13.925 6.024l-3.192-16.242z" fill="#FAB7A7" fill-rule="nonzero"/><path d="M205.836 278.934a2.134 2.134 0 0 0 2.986.316 22.377 22.377 0 0 1 6.33-3.59c4.664-1.65 9.769-3.836 10.333-6.559.564-2.723-4.293-4.8-1.72-8.953a18.405 18.405 0 0 1 3.977-4.194c2.243-1.857 2.752-3.796 1.912-4.649-.839-.852-1.376 1.032-3.412 2.476-1.376 1.017-2.752 2.159-3.702 2.75-2.174 1.458-4.527 3.466-5.765 3.878-2.188.73.592-2.172-.715-4.222-1.308-2.049-1.376.152-2.408 2.297-.757 1.623-7.871 8.76-11.297 12.144a2.818 2.818 0 0 0-.193 3.795l3.674 4.511z" fill="#FAB7A7" fill-rule="nonzero"/><path d="M86.385 581.104c.702-.124 11.242-3.92 13.031.467 1.789 4.387-10.568 12.185-19.264 13.162-8.696.976-14.53 5.35-16.98 3.892-2.45-1.458-1.513-7.936 1.569-8.995 3.082-1.059 3.357 4.621 6.7 3.645 3.345-.977 5.78-10.466 14.944-12.171zM42.202 581.104c.633-.303 7.54-3.837 10.788-2.036 5.311 2.943-8.93 12.281-15.81 12.378-6.88.096-10.76 4.882-12.577 3.507-1.816-1.376-1.679-7.083.798-7.688 2.477-.605 2.394 2.943 5.077 2.42 2.684-.522 4.844-5.39 11.724-8.581z" fill="#DAB4B4" fill-rule="nonzero"/><path d="M14.75 240.88s-1.54 7-7.787 6.877c0 0-2.353.138 1.87-2.462 4.225-2.599 6.275-6.876 6.18-5.927a7.78 7.78 0 0 1-.262 1.513z" fill="#BD8F8F" fill-rule="nonzero"/><path d="M453.406 486.074l11.338 10.287-8.394 12.776s-5.848 9.627-13.966 8.994c-8.118-.632-13.14-6.972-15.7-9.957-1.734-2.035-8.449-10.452-12.192-14.687-.963-1.087-.564-3.383 1.376-4.91a4.336 4.336 0 0 1 5.422 0l17.31 14.014a3.345 3.345 0 0 0 4.926-.825l9.88-15.692z" fill="#FDCBAD" fill-rule="nonzero"/><path d="M408.273 484.355a29.118 29.118 0 0 0-1.761-4.456l12.384 4.277.082.743a4.813 4.813 0 0 0 2.257 3.672c-2.532-1.61-6.798 4.882-6.798 4.882-1.665-2.49-6.068-4.525-6.233-8.925 0-.51.606-3.452.743-4.951.138-1.5-1.679-3.012-.578-3.796 1.101-.784 2.188.935 2.862 2.05.675 1.113-.165 4.125 2.202 4.964a5.185 5.185 0 0 1 3.013 3.548" fill="#FDCBAD" fill-rule="nonzero"/><path d="M418.786 487.477a3.33 3.33 0 0 1-2.023-1.94 5.063 5.063 0 0 0-3.536-2.75s-.909-.33-.991-.852l6.715 2.31c-.061.754.086 1.51.426 2.187.281.515.603 1.007.963 1.471a7.034 7.034 0 0 1-1.554-.426z" fill="#E2A27A" fill-rule="nonzero"/><path d="M9.632 385.57c5.653 5.781 11.616 10.824 17.888 15.129" stroke="#464646" stroke-width=".51" stroke-linecap="round"/><path d="M53.912 448.707l9.632 20.628M97.71 521.033l-9.646 32.59M24.791 309.932l1.33 22.004M48.16 292.054c.816 1.872 1.733 3.248 2.752 4.126" stroke="#464646" stroke-width=".5" stroke-linecap="round"/><path d="M451.406 604.258c-8.233-6.547-24.983-10.468-27.623-6.96-2.64 3.51-2.571 7.895 11.1 11.214 13.67 3.319 16.298 2.933 24.456 5.079 8.157 2.145 11.159-9.093 5.829-10.16-5.33-1.065-5.293 7.56-13.762.827z" fill="#E1D0C7"/><path d="M514.409 437.83c.656 2.935-.19 5.227-2.537 6.877M543.52 484.589l2.752 22.004M506.368 547.489c5.854 1.055 11.816-.2 17.888-3.764" stroke="#464646" stroke-width=".5" stroke-linecap="round"/><path d="M559.003 604.135c-.514.172-1.135.277-1.861.312-5.075.25-8.58-1.982-9.438-1.97-.857.013-.992 5.487-3.094 5.271-2.102-.215-6.873-2.817-9.991-4.225-3.834-1.219-6.578 1.043-6.2 6.214.26 1.97 2.755 4.106 16.19 5.5 8.027-1.004 3.81-5.364 9.682-4.525 5.874.838 11.709 5.426 12.536 0a5.986 5.986 0 0 0-7.825-6.577z" fill="#E1D0C7"/><path d="M549.139 613.744c1.364-2.239 2.907-3.229 4.628-2.97M423.808 602.86c4.19 4.04 9.694 6.332 16.512 6.877M96.913 586.37c-4.335 3.886-7.884 6.071-10.65 6.556M29.206 593.593c2.954-1.348 5.334-2.098 7.14-2.25" stroke="#464646" stroke-width=".5" stroke-linecap="round"/><g fill="#635C5C"><path d="M422.654 165.374a.752.752 0 0 0-.383-.027.887.887 0 0 0-.404.23l-2.127 2.08c-.336.349-.344.812-.033 1.377l.315.584c.158.316.326.5.503.55.147.041.3-.008.46-.152l.522-.509a.852.852 0 0 0 .19-.228l.15-.22.12-.239.028.009c-.01.108-.014.228-.018.348l-.005.777-.1 9.264-1.876-.689a.812.812 0 0 0-.08-.025c-.403-.116-.604.131-.612.737l-.01.655c-.002.667.222 1.075.677 1.245l5.833 2.124c.028.01.052.019.078.025.412.118.618-.137.627-.753l.01-.655c.002-.646-.227-1.056-.69-1.219l-1.863-.683.14-13.086c.002-.666-.22-1.074-.67-1.233l-.7-.261a1.411 1.411 0 0 0-.082-.026M429.668 167.673c-.432-.114-.67.119-.713.705l-.576 6.484c-.045.564.133 1.026.535 1.363l.162.124c.162.133.324.216.485.258.16.042.333.046.515.034.15-.032.355-.049.604-.076.2-.011.425.014.672.08.06.016.123.034.187.055.727.25 1.323.71 1.794 1.4.471.679.704 1.458.688 2.344-.011.432-.076.808-.212 1.117a1.723 1.723 0 0 1-.544.707c-.222.175-.476.28-.764.316a1.964 1.964 0 0 1-.746-.058 3.204 3.204 0 0 1-1.421-.822c-.342-.352-.615-.666-.811-.96-.193-.245-.37-.388-.529-.43-.19-.049-.353.046-.491.284l-.37.581a1.056 1.056 0 0 0-.189.658c.007.245.104.483.276.71a8.429 8.429 0 0 0 1.32 1.528c.294.28.62.527.989.764a5.599 5.599 0 0 0 1.532.668 3.43 3.43 0 0 0 1.5.075 3.001 3.001 0 0 0 1.46-.71c.414-.377.744-.868.984-1.492.242-.614.368-1.34.384-2.176a8.22 8.22 0 0 0-.269-2.224 7.839 7.839 0 0 0-.84-2.02 6.552 6.552 0 0 0-1.382-1.646 5.492 5.492 0 0 0-2.077-1.13 1.777 1.777 0 0 0-.331-.056c-.152-.01-.297-.017-.425-.02-.145.023-.28.037-.4.058l-.03-.009.04-.202c.01-.138.03-.315.06-.54l.242-2.688 3.913 1.317c.029.01.058.019.086.026.447.118.67-.13.683-.735l.006-.656c.013-.663-.233-1.072-.729-1.242l-5.203-1.745a.872.872 0 0 0-.065-.02"/></g></g></svg>